<svg width="218" height="33" viewBox="0 0 218 33" fill="none" xmlns="http://www.w3.org/2000/svg">
<path fill-rule="evenodd" clip-rule="evenodd" d="M105.274 32.9182H217.849V0.582031H105.274V32.9182Z" fill="#FEFEFE"/>
<path fill-rule="evenodd" clip-rule="evenodd" d="M0 32.9182H105.275V0.582031H0V32.9182Z" fill="#1D1D1B"/>
<path fill-rule="evenodd" clip-rule="evenodd" d="M78.8764 23.9183V23.3893H79.3643C79.6759 23.3893 79.9544 23.2915 80.1984 23.0914C80.4424 22.8949 80.5978 22.6236 80.6662 22.2883L82.1638 9.39897H82.5906L88.0234 21.1461L93.3547 9.39897H93.7822L95.3 22.2883C95.3683 22.6236 95.5238 22.8949 95.7677 23.0914C96.0117 23.2915 96.2895 23.3893 96.6018 23.3893H97.0963V23.9183H92.44V23.4102H92.9279C93.0935 23.4102 93.2359 23.3454 93.3547 23.2166C93.4734 23.0878 93.5346 22.9388 93.5346 22.7726V22.7352L92.7005 13.3607L88.7762 22.068C88.6711 22.2983 88.5761 22.5358 88.4883 22.7726C88.4098 22.9935 88.3321 23.2267 88.2544 23.4779C88.1795 23.7283 88.1284 23.9723 88.1018 24.2033H87.6743L82.8007 13.6493L81.9846 22.7352V22.7726C81.9846 22.9388 82.0451 23.0878 82.1703 23.2166C82.2926 23.3454 82.4315 23.4102 82.5906 23.4102H83.0584V23.9183H78.8764ZM64.7917 18.1228H69.2076L67.045 12.3885L64.7917 18.1228ZM59.7857 23.8982V23.3692H60.1347C60.406 23.3692 60.691 23.2814 60.989 23.1015C61.284 22.9223 61.5309 22.6308 61.7209 22.2271H61.7007L66.2116 11.5551C66.344 11.2564 66.4657 10.9714 66.5772 10.7009C66.6693 10.467 66.7535 10.2295 66.832 9.9855C66.9061 9.74153 66.9435 9.54506 66.9435 9.39897H67.3911L72.7217 22.2069V22.1868C72.9153 22.6035 73.1593 22.9014 73.4572 23.0813C73.7559 23.2605 74.0402 23.349 74.3115 23.349H74.6505V23.878H69.8344V23.349H70.1799C70.3598 23.349 70.516 23.2944 70.6477 23.1864C70.7801 23.0777 70.8477 22.9115 70.8477 22.6949C70.8477 22.5761 70.8276 22.4509 70.7865 22.3257L69.5466 19.0584H64.4427L63.1408 22.3458V22.3257C63.1034 22.4775 63.0832 22.5999 63.0832 22.6949C63.0832 22.9115 63.1545 23.0813 63.297 23.1965C63.4394 23.3116 63.5985 23.3692 63.7784 23.3692H64.1239V23.8982H59.7857ZM45.7888 16.618H46.9245C47.0432 16.618 47.1785 16.6115 47.3311 16.5978C47.575 16.5978 47.8392 16.5741 48.1206 16.523C48.4055 16.4726 48.6833 16.3812 48.9611 16.2423C49.2389 16.1063 49.4901 15.9134 49.7204 15.6623C49.9543 15.4147 50.1342 15.0764 50.2659 14.649C50.3307 14.4014 50.3645 14.0833 50.3645 13.6896V13.5004C50.3371 12.6396 50.127 11.9581 49.7269 11.4529C49.3274 10.9513 48.7848 10.68 48.1004 10.6397C47.8701 10.626 47.6427 10.6159 47.4189 10.6095C47.1958 10.6023 46.9856 10.5994 46.7856 10.5994C46.5956 10.5994 46.4264 10.6023 46.2768 10.6095C46.1314 10.6159 46.0026 10.6195 45.8975 10.6195H45.7888V16.618ZM42.6777 23.9385V23.4102H43.0908C43.3966 23.4102 43.6471 23.3052 43.8436 23.0914C44.0436 22.8813 44.1552 22.6272 44.1825 22.3286V11.3039C44.1552 11.006 44.0436 10.7512 43.8436 10.5346C43.6471 10.3209 43.3966 10.2129 43.0908 10.2129H42.6777V9.68396L48.1817 9.75161C49.4361 9.75161 50.4185 10.0942 51.1374 10.775C51.8556 11.4565 52.2148 12.4058 52.2148 13.6184C52.2148 14.0862 52.137 14.5439 51.9809 14.9915C51.8283 15.4384 51.6146 15.8422 51.344 16.2049C51.0726 16.5676 50.7538 16.872 50.381 17.1196C50.0082 17.3672 49.6052 17.5262 49.1677 17.591C49.3613 17.7435 49.5477 17.9263 49.7269 18.1401C49.9068 18.3567 50.0766 18.5604 50.2256 18.7496C50.5372 19.2109 50.8459 19.6514 51.1576 20.0652C51.4152 20.4142 51.6858 20.7734 51.9708 21.1389C52.2558 21.5053 52.4961 21.7866 52.6861 21.9867C53.0755 22.4207 53.472 22.7697 53.8722 23.0338C54.2723 23.298 54.7905 23.4304 55.4274 23.4304V23.9586H54.1672C53.6886 23.9586 53.2655 23.9018 52.8963 23.7859C52.5228 23.6707 52.1946 23.5254 51.9031 23.3491C51.6117 23.1727 51.3605 22.9827 51.1475 22.7726C50.9373 22.566 50.7509 22.3595 50.5912 22.1522C50.5646 22.1155 50.5034 22.0306 50.4084 21.9018C50.3134 21.773 50.2018 21.6139 50.073 21.4203C49.9442 21.2311 49.8017 21.0238 49.6491 20.8036C49.493 20.5834 49.3339 20.3559 49.1677 20.1256C48.8733 19.7226 48.5682 19.2987 48.2594 18.8583C47.9514 18.4179 47.7377 18.1199 47.6225 17.9638C47.5074 17.8076 47.3851 17.6687 47.2562 17.5471C47.1274 17.4247 46.9856 17.3297 46.8331 17.2549C46.6769 17.1844 46.3279 17.1469 45.7888 17.1469V22.3322C45.8162 22.6272 45.9277 22.8813 46.1278 23.095C46.3243 23.3052 46.5754 23.4102 46.8806 23.4102H47.2937V23.9385H42.6777ZM27.2983 23.9586V23.4304H27.7359C28.054 23.4304 28.3181 23.3253 28.5283 23.1116C28.7384 22.9014 28.8572 22.6409 28.8845 22.3286V11.2262C28.8572 10.9549 28.7355 10.7246 28.5182 10.5346C28.3016 10.3482 28.0475 10.2532 27.7561 10.2532H27.3185V9.72426H33.3241C33.5314 9.72426 33.7617 9.7113 34.0121 9.68396C34.2662 9.65661 34.5138 9.62638 34.7512 9.58536C34.9916 9.54506 35.2118 9.49756 35.4155 9.44647C35.6184 9.39249 35.7746 9.33852 35.8797 9.27734V12.2057H35.3507V11.6767C35.3507 11.4054 35.2593 11.1715 35.0765 10.9851C34.8901 10.7958 34.6627 10.6872 34.3885 10.6598H30.4908V16.4553H33.6768C33.9107 16.4417 34.1071 16.3603 34.2633 16.2049C34.4188 16.0523 34.4965 15.8623 34.4965 15.6356V15.1945H35.0254V18.6309H34.4965V18.1566C34.4965 17.94 34.4188 17.7572 34.2633 17.6075C34.1071 17.455 33.9243 17.3708 33.7171 17.3499H30.511V22.9827H33.1953C33.7041 22.9827 34.1374 22.9187 34.4965 22.7899C34.8592 22.661 35.1715 22.4811 35.4393 22.2472C35.707 22.0169 35.9373 21.7427 36.1273 21.4275C36.3201 21.1087 36.49 20.7633 36.6353 20.3833H37.1809L35.8797 23.9586H27.2983ZM9.62109 23.9183V23.3893H10.045C10.353 23.3893 10.607 23.2843 10.8071 23.0713C11.0072 22.8611 11.1187 22.6071 11.1461 22.3084V11.2838C11.1187 10.9851 11.0072 10.7311 10.8071 10.5145C10.607 10.3007 10.353 10.192 10.045 10.192H9.62109V9.66381H14.2982V10.192H13.8707C13.5627 10.192 13.3051 10.3007 13.0978 10.5145C12.8949 10.7311 12.7797 10.9851 12.7524 11.2838V16.6388L17.5886 10.8563C17.667 10.7649 17.7109 10.6735 17.7174 10.5785C17.7174 10.4734 17.6771 10.382 17.5922 10.3079C17.5108 10.2295 17.3957 10.192 17.2496 10.192H16.884V9.68396H21.4114V10.192H21.1711C20.7681 10.192 20.3881 10.2734 20.0354 10.436C19.6799 10.5994 19.3885 10.816 19.1582 11.0873L14.322 16.3675L19.9304 22.6538C20.1751 22.9115 20.4457 23.0979 20.7335 23.2066C21.0257 23.3152 21.3884 23.3764 21.8188 23.3893V23.9183H20.8256C20.6731 23.9183 20.473 23.9082 20.2254 23.8874C19.975 23.8672 19.7073 23.8197 19.4158 23.7456C19.1243 23.6679 18.8257 23.552 18.5205 23.3965C18.2161 23.2404 17.9412 23.0202 17.6972 22.7352L12.7524 17.0656V22.3084C12.7797 22.6071 12.8949 22.8611 13.0978 23.0713C13.3051 23.2843 13.5627 23.3893 13.8707 23.3893H14.2982V23.9183H9.62109Z" fill="#FEFEFE"/>
<path fill-rule="evenodd" clip-rule="evenodd" d="M193.04 23.9392V23.4102H193.562C193.844 23.4102 194.085 23.3087 194.288 23.1022C194.488 22.8985 194.593 22.6445 194.606 22.3458V12.0193C194.606 11.6839 194.596 11.355 194.575 11.0333C194.555 10.7116 194.532 10.4339 194.508 10.1928L194.406 9.37954H194.874L205.465 20.6791V11.2471C205.437 10.9621 205.329 10.7181 205.133 10.5145C204.937 10.3151 204.693 10.2129 204.394 10.2129H203.858V9.68468L208.271 9.70483V10.2331H207.735C207.465 10.2331 207.227 10.3353 207.027 10.5353C206.827 10.7383 206.719 10.9758 206.705 11.2471V21.5326C206.705 21.8449 206.716 22.1602 206.736 22.4818C206.756 22.8035 206.78 23.0914 206.804 23.3498C206.831 23.6477 206.868 23.9392 206.916 24.2234H206.458L195.867 12.9146V22.3667C195.894 22.651 196.006 22.8985 196.203 23.1022C196.402 23.3087 196.643 23.4102 196.927 23.4102H197.453V23.9392H193.04ZM173.791 16.7338C173.791 15.622 173.97 14.6159 174.333 13.7076C174.692 12.7994 175.193 12.0193 175.834 11.3687C176.478 10.7181 177.247 10.2165 178.145 9.86388C179.04 9.51484 180.03 9.33852 181.108 9.33852C182.222 9.33852 183.182 9.47741 183.978 9.75233C184.778 10.0265 185.487 10.3554 186.114 10.7419L186.54 13.8192H186.073C185.761 12.6634 185.178 11.7854 184.327 11.1787C183.477 10.5756 182.409 10.2741 181.128 10.2741C180.314 10.2741 179.569 10.4303 178.895 10.7419C178.22 11.0535 177.641 11.491 177.159 12.0567C176.674 12.6195 176.302 13.3003 176.038 14.097C175.773 14.8936 175.641 15.7781 175.641 16.754C175.641 17.7169 175.776 18.5913 176.048 19.3808C176.319 20.1703 176.698 20.8446 177.19 21.4074C177.678 21.9738 178.261 22.4171 178.938 22.7395C179.616 23.0648 180.352 23.2339 181.148 23.2476C181.962 23.2339 182.748 23.0821 183.507 22.7906C184.27 22.4955 184.92 22.1127 185.462 21.6413V18.1199C185.462 17.6485 185.205 17.4118 184.693 17.4118H184.676H184.385V16.9641H188.17V17.4118L187.883 17.3916C187.34 17.3916 187.069 17.6284 187.069 18.0998V21.4513C186.822 21.7766 186.52 22.099 186.157 22.4207C185.798 22.7395 185.371 23.0238 184.88 23.2749C184.385 23.5225 183.829 23.729 183.209 23.8953C182.589 24.0608 181.894 24.1421 181.128 24.1421C180.044 24.1421 179.051 23.9629 178.149 23.6002C177.247 23.2411 176.478 22.7359 175.834 22.0918C175.193 21.4484 174.692 20.6719 174.333 19.7637C173.97 18.8554 173.791 17.8486 173.791 16.7338ZM163.044 23.919V23.3901H163.468C163.776 23.3901 164.031 23.285 164.23 23.0713C164.43 22.8611 164.542 22.6071 164.569 22.3091V11.2838C164.542 10.9858 164.43 10.7318 164.23 10.5145C164.031 10.3014 163.776 10.1928 163.468 10.1928H163.044V9.66381H167.721V10.1928H167.294C166.985 10.1928 166.728 10.3014 166.521 10.5145C166.318 10.7318 166.202 10.9858 166.176 11.2838V22.3091C166.202 22.6071 166.318 22.8611 166.521 23.0713C166.728 23.285 166.985 23.3901 167.294 23.3901H167.721V23.919H163.044ZM149.231 22.1969C149.231 21.8716 149.261 21.5125 149.326 21.1195C149.386 20.7259 149.471 20.3538 149.576 20.0047H150.064C150.05 20.1364 150.04 20.2487 150.034 20.3365C150.026 20.4243 150.024 20.5028 150.024 20.5704C150.024 21.3973 150.271 22.0479 150.766 22.5293C151.257 23.0072 151.877 23.2476 152.623 23.2476H152.792C153.138 23.2339 153.47 23.1699 153.789 23.0475C154.107 22.9295 154.382 22.7632 154.609 22.543C154.839 22.3257 155.026 22.068 155.165 21.7701C155.304 21.4721 155.371 21.1361 155.371 20.7597C155.371 20.0386 155.12 19.4686 154.622 19.0519L150.742 15.514C150.328 15.1203 150.034 14.6936 149.851 14.2222C149.667 13.7551 149.576 13.3176 149.576 12.9146C149.576 12.477 149.657 12.0502 149.824 11.6335C149.99 11.2161 150.23 10.8397 150.545 10.508C150.861 10.1726 151.247 9.9049 151.711 9.70123C152.172 9.50116 152.711 9.39969 153.318 9.39969C153.592 9.39969 153.883 9.41696 154.188 9.45079C154.497 9.48101 154.789 9.53211 155.06 9.59976H156.022V12.3683H155.51C155.51 11.735 155.304 11.237 154.89 10.8743C154.473 10.5145 153.979 10.3353 153.399 10.3353C153.07 10.3353 152.768 10.3928 152.498 10.508C152.226 10.6231 151.993 10.7793 151.796 10.9758C151.599 11.1686 151.45 11.3925 151.341 11.6436C151.236 11.8941 151.182 12.1618 151.182 12.4468C151.182 12.6907 151.227 12.9685 151.315 13.2801C151.402 13.5918 151.589 13.8832 151.87 14.1545L155.768 17.791C156.232 18.184 156.551 18.5978 156.72 19.0382C156.893 19.4758 156.978 19.909 156.978 20.3329C156.978 20.9022 156.883 21.4275 156.69 21.909C156.5 22.3904 156.232 22.8007 155.883 23.1396C155.538 23.4779 155.11 23.7427 154.602 23.9356C154.093 24.1292 153.528 24.2234 152.904 24.2234C152.64 24.2234 152.345 24.2033 152.023 24.1594C151.698 24.1155 151.372 24.0478 151.04 23.9529C150.712 23.8579 150.393 23.7355 150.084 23.5865C149.78 23.434 149.525 23.2512 149.322 23.031C149.295 22.9086 149.271 22.7769 149.254 22.6344C149.237 22.4883 149.231 22.3429 149.231 22.1969ZM133.261 23.9593V23.4311H133.699C134.017 23.4311 134.282 23.326 134.492 23.1123C134.702 22.9021 134.821 22.6409 134.847 22.3293V11.2262C134.821 10.9556 134.698 10.7246 134.481 10.5353C134.264 10.3489 134.01 10.2539 133.719 10.2539H133.281V9.72498H139.287C139.494 9.72498 139.724 9.7113 139.975 9.68468C140.23 9.65733 140.476 9.6271 140.714 9.58608C140.954 9.54578 141.175 9.49828 141.378 9.44719C141.581 9.39321 141.737 9.33852 141.842 9.27734V12.2057H141.313V11.6774C141.313 11.4061 141.222 11.1722 141.039 10.9858C140.853 10.7958 140.625 10.6879 140.351 10.6605H136.453V16.4561H139.639C139.873 16.4424 140.07 16.3611 140.226 16.2049C140.381 16.0523 140.46 15.863 140.46 15.6356V15.1952H140.988V18.6316H140.46V18.1574C140.46 17.94 140.381 17.7572 140.226 17.6082C140.07 17.4557 139.887 17.3708 139.68 17.3506H136.474V22.9835H139.158C139.667 22.9835 140.1 22.9187 140.46 22.7906C140.823 22.661 141.134 22.4819 141.402 22.248C141.67 22.0177 141.9 21.7427 142.09 21.4275C142.283 21.1094 142.453 20.7633 142.598 20.384H143.144L141.842 23.9593H133.261ZM116.072 22.9835H119.833C120.66 22.9835 121.41 22.8345 122.084 22.5358C122.755 22.2408 123.328 21.8212 123.799 21.2786C124.274 20.7366 124.643 20.0853 124.907 19.3297C125.171 18.574 125.304 17.727 125.304 16.7878C125.304 15.8695 125.171 15.0289 124.907 14.2733C124.643 13.5176 124.274 12.8671 123.799 12.3244C123.328 11.7825 122.752 11.3622 122.074 11.0672C121.393 10.7692 120.647 10.6195 119.833 10.6195H116.072V22.9835ZM112.927 23.919V23.3901H113.354C113.665 23.3901 113.92 23.285 114.123 23.0713C114.327 22.8611 114.438 22.6035 114.465 22.3055V11.1686C114.465 10.8944 114.35 10.667 114.123 10.4878C113.896 10.3043 113.639 10.2129 113.354 10.2129H112.927V9.68468H119.837C120.922 9.68468 121.911 9.8538 122.806 10.1964C123.697 10.5353 124.467 11.0161 125.114 11.6364C125.758 12.2568 126.256 13.0024 126.608 13.8732C126.957 14.7476 127.134 15.717 127.134 16.7878C127.134 17.8623 126.957 18.8353 126.608 19.7126C126.256 20.587 125.758 21.3361 125.114 21.963C124.467 22.5905 123.697 23.0749 122.806 23.4102C121.911 23.7492 120.922 23.919 119.837 23.919H112.927Z" fill="#1D1D1B"/>
</svg>
