<svg width="20" height="11" viewBox="0 0 20 11" fill="none" xmlns="http://www.w3.org/2000/svg">
<path d="M1.70711 0.292893C1.31658 -0.0976311 0.683417 -0.0976311 0.292893 0.292893C-0.0976311 0.683417 -0.0976311 1.31658 0.292893 1.70711L1.70711 0.292893ZM10 10L9.29289 10.7071C9.68342 11.0976 10.3166 11.0976 10.7071 10.7071L10 10ZM19.7071 1.70711C20.0976 1.31658 20.0976 0.683417 19.7071 0.292893C19.3166 -0.0976311 18.6834 -0.0976311 18.2929 0.292893L19.7071 1.70711ZM0.292893 1.70711L9.29289 10.7071L10.7071 9.29289L1.70711 0.292893L0.292893 1.70711ZM10.7071 10.7071L19.7071 1.70711L18.2929 0.292893L9.29289 9.29289L10.7071 10.7071Z" fill="white"/>
</svg>
