<svg width="18" height="18" viewBox="0 0 18 18" fill="none" xmlns="http://www.w3.org/2000/svg">
<path fill-rule="evenodd" clip-rule="evenodd" d="M6 13.5C5.175 13.5 4.5075 14.175 4.5075 15C4.5075 15.825 5.175 16.5 6 16.5C6.825 16.5 7.5 15.825 7.5 15C7.5 14.175 6.825 13.5 6 13.5ZM1.5 1.5V3H3L5.7 8.6925L4.6875 10.53C4.5675 10.74 4.5 10.9875 4.5 11.25C4.5 12.075 5.175 12.75 6 12.75H15V11.25H6.315C6.21 11.25 6.1275 11.1675 6.1275 11.0625L6.15 10.9725L6.825 9.75H12.4125C12.975 9.75 13.47 9.4425 13.725 8.9775L16.41 4.11C16.47 4.005 16.5 3.8775 16.5 3.75C16.5 3.3375 16.1625 3 15.75 3H4.6575L3.9525 1.5H1.5ZM13.5 13.5C12.675 13.5 12.0075 14.175 12.0075 15C12.0075 15.825 12.675 16.5 13.5 16.5C14.325 16.5 15 15.825 15 15C15 14.175 14.325 13.5 13.5 13.5Z" fill="#22201E"/>
</svg>
