<svg width="34" height="24" viewBox="0 0 34 24" fill="none" xmlns="http://www.w3.org/2000/svg">
<path fill-rule="evenodd" clip-rule="evenodd" d="M29 6H24.5V0H3.5C1.85 0 0.5 1.35 0.5 3V19.5H3.5C3.5 21.99 5.51 24 8 24C10.49 24 12.5 21.99 12.5 19.5H21.5C21.5 21.99 23.51 24 26 24C28.49 24 30.5 21.99 30.5 19.5H33.5V12L29 6ZM8 21.75C6.755 21.75 5.75 20.745 5.75 19.5C5.75 18.255 6.755 17.25 8 17.25C9.245 17.25 10.25 18.255 10.25 19.5C10.25 20.745 9.245 21.75 8 21.75ZM28.25 8.25L31.19 12H24.5V8.25H28.25ZM26 21.75C24.755 21.75 23.75 20.745 23.75 19.5C23.75 18.255 24.755 17.25 26 17.25C27.245 17.25 28.25 18.255 28.25 19.5C28.25 20.745 27.245 21.75 26 21.75Z" fill="#CEB08F"/>
</svg>
