<svg width="16" height="16" viewBox="0 0 16 16" fill="none" xmlns="http://www.w3.org/2000/svg">
<path fill-rule="evenodd" clip-rule="evenodd" d="M4.04297 0.5C1.83383 0.5 0.0429688 2.29086 0.0429688 4.5V11.5C0.0429688 13.7091 1.83383 15.5 4.04297 15.5H7.45355V10.3683H5.67997V8.36847H7.45355V6.89368C7.45355 5.18202 8.52688 4.25 10.0952 4.25C10.8465 4.25 11.4917 4.30466 11.68 4.32896V6.11791L10.5925 6.11847C9.73969 6.11847 9.5747 6.51325 9.5747 7.0919V8.36902H11.6085L11.3437 10.3689H9.5747V15.5H11.043C13.2521 15.5 15.043 13.7091 15.043 11.5V4.5C15.043 2.29086 13.2521 0.5 11.043 0.5H4.04297Z" fill="#969696"/>
</svg>
