<svg width="20" height="20" viewBox="0 0 20 20" fill="none" xmlns="http://www.w3.org/2000/svg">
<path fill-rule="evenodd" clip-rule="evenodd" d="M5.66699 1.66675C3.45785 1.66675 1.66699 3.45761 1.66699 5.66675V14.3334C1.66699 16.5426 3.45785 18.3334 5.66699 18.3334L9.90097 18.3334V12.6316H7.93033V10.4095H9.90097V8.77084C9.90097 6.869 11.0936 5.83341 12.8361 5.83341C13.6709 5.83341 14.3878 5.89415 14.597 5.92114V7.90887L13.3887 7.90949C12.4411 7.90949 12.2578 8.34814 12.2578 8.99108V10.4101H14.5176L14.2234 12.6322H12.2578V18.3334L14.3337 18.3334C16.5428 18.3334 18.3337 16.5426 18.3337 14.3334V5.66675C18.3337 3.45761 16.5428 1.66675 14.3337 1.66675H5.66699Z" fill="white"/>
</svg>
