<svg width="40" height="40" viewBox="0 0 40 40" fill="none" xmlns="http://www.w3.org/2000/svg">
<path fill-rule="evenodd" clip-rule="evenodd" d="M7.33337 3.33325C5.12424 3.33325 3.33337 5.12411 3.33337 7.33325V32.6666C3.33337 34.8757 5.12424 36.6666 7.33337 36.6666L19.8013 36.6666V25.2629H15.86V20.8187H19.8013V17.5414C19.8013 13.7378 22.1865 11.6666 25.6717 11.6666C27.3412 11.6666 28.7751 11.7881 29.1934 11.842V15.8175L26.7767 15.8187C24.8816 15.8187 24.515 16.696 24.515 17.9819V20.82H29.0346L28.4462 25.2641H24.515V36.6666L32.6667 36.6666C34.8758 36.6666 36.6667 34.8757 36.6667 32.6666V7.33325C36.6667 5.12411 34.8758 3.33325 32.6667 3.33325H7.33337Z" fill="#22201E"/>
</svg>
