<svg width="41" height="40" viewBox="0 0 41 40" fill="none" xmlns="http://www.w3.org/2000/svg">
<path fill-rule="evenodd" clip-rule="evenodd" d="M20.8389 17.9094V23.7399H30.4835C30.0948 26.2397 27.5683 31.0766 20.8389 31.0766C15.0328 31.0766 10.2955 26.2689 10.2955 20.3388C10.2955 14.4112 15.0328 9.60102 20.8389 9.60102C24.1429 9.60102 26.3536 11.01 27.6169 12.2247L32.2327 7.77899C29.2688 5.00951 25.4304 3.33325 20.8389 3.33325C11.4373 3.33325 3.83337 10.9372 3.83337 20.3388C3.83337 29.7405 11.4373 37.3444 20.8389 37.3444C30.6536 37.3444 37.1667 30.445 37.1667 20.7275C37.1667 19.61 37.0428 18.7597 36.897 17.9094H20.8389Z" fill="#969696"/>
</svg>
