<svg width="16" height="16" viewBox="0 0 16 16" fill="none" xmlns="http://www.w3.org/2000/svg">
<path fill-rule="evenodd" clip-rule="evenodd" d="M8.34977 7.05929V9.683H12.6898C12.5149 10.8079 11.378 12.9845 8.34977 12.9845C5.73699 12.9845 3.60522 10.821 3.60522 8.1525C3.60522 5.48506 5.73699 3.32049 8.34977 3.32049C9.83654 3.32049 10.8314 3.95456 11.3998 4.50117L13.4769 2.50058C12.1432 1.25432 10.4159 0.5 8.34977 0.5C4.11903 0.5 0.697266 3.92176 0.697266 8.1525C0.697266 12.3832 4.11903 15.805 8.34977 15.805C12.7664 15.805 15.6973 12.7003 15.6973 8.32742C15.6973 7.82454 15.6415 7.44191 15.5759 7.05929H8.34977Z" fill="#969696"/>
</svg>
