<svg width="52" height="52" viewBox="0 0 52 52" fill="none" xmlns="http://www.w3.org/2000/svg">
<path fill-rule="evenodd" clip-rule="evenodd" d="M4.39415 20.8392C3.81865 21.1412 3.20865 21.1897 2.55665 20.9917C1.90465 20.7927 1.42015 20.4097 1.11715 19.8402C0.807153 19.2682 0.753653 18.6507 0.955653 17.9862C1.20065 17.1827 1.82515 16.5847 2.58065 16.3997L2.78715 17.2862C2.32115 17.3857 1.95765 17.7387 1.80315 18.2447C1.67315 18.6752 1.69915 19.0632 1.89065 19.4122C2.08365 19.7542 2.39115 19.9937 2.82115 20.1242C3.24515 20.2537 3.63365 20.2267 3.98515 20.0502C4.33815 19.8677 4.57615 19.5597 4.70815 19.1297C4.86215 18.6232 4.75515 18.1137 4.43215 17.7872L5.09815 17.1677C5.62165 17.7422 5.80915 18.5797 5.56215 19.3902C5.36015 20.0547 4.97015 20.5372 4.39415 20.8392Z" fill="white"/>
<path fill-rule="evenodd" clip-rule="evenodd" d="M4.02945 11.5848L4.78895 12.0138L4.17495 13.1013L7.44495 14.9463L6.99695 15.7408L3.72695 13.8958L3.11695 14.9783L2.35645 14.5498L4.02945 11.5848Z" fill="white"/>
<path fill-rule="evenodd" clip-rule="evenodd" d="M6.86057 8.05548L7.45957 7.36798L9.07357 10.6155C9.50807 11.485 9.42807 12.2215 8.83657 12.829L8.19407 12.269C8.55507 11.9255 8.59757 11.595 8.42857 11.1755L4.99707 10.193L5.59657 9.50548L7.94507 10.211L6.86057 8.05548Z" fill="white"/>
<path fill-rule="evenodd" clip-rule="evenodd" d="M12.6764 7.9359C13.0034 7.6994 13.1884 7.4029 13.2379 7.0409C13.2824 6.6744 13.1824 6.3214 12.9309 5.9734C12.6794 5.6249 12.3749 5.4199 12.0174 5.3529C11.6539 5.2799 11.3144 5.3629 10.9874 5.5989L10.2369 6.1414L11.9259 8.4784L12.6764 7.9359ZM10.4759 4.8914C10.9904 4.5199 11.5509 4.3924 12.1534 4.5034C12.7614 4.6104 13.2544 4.9314 13.6384 5.4624C14.0214 5.9924 14.1714 6.5614 14.0829 7.1724C13.9994 7.7794 13.7024 8.2714 13.1879 8.6434L11.6979 9.7204L8.98535 5.9684L10.4759 4.8914Z" fill="white"/>
<path fill-rule="evenodd" clip-rule="evenodd" d="M18.4913 5.79723L17.4198 3.18573L16.6573 6.55023L16.0153 6.81373L14.2578 2.53323L15.1023 2.18673L16.1763 4.80423L16.9368 1.43373L17.5788 1.17023L19.3348 5.45123L18.4913 5.79723Z" fill="white"/>
<mask id="mask0_202_20969" style="mask-type:alpha" maskUnits="userSpaceOnUse" x="20" y="0" width="4" height="6">
<path fill-rule="evenodd" clip-rule="evenodd" d="M20.002 0H23.874V5.1397H20.002V0Z" fill="white"/>
</mask>
<g mask="url(#mask0_202_20969)">
<path fill-rule="evenodd" clip-rule="evenodd" d="M22.582 2.3397L22.36 0.989696L21.433 1.1422C21.094 1.1987 20.863 1.5447 20.9245 1.9162C20.986 2.2882 21.317 2.5487 21.6565 2.4932L22.582 2.3397ZM23.121 -0.000305176L23.874 4.5657L22.974 4.7142L22.713 3.1292L22.1965 3.2142L21.4085 4.9727L20.3975 5.1397L21.2355 3.2722C20.6205 3.1597 20.124 2.6717 20.0245 2.0652C19.955 1.6472 20.0465 1.2642 20.2915 0.922195C20.5365 0.580195 20.8705 0.370695 21.295 0.301195L23.121 -0.000305176Z" fill="white"/>
</g>
<path fill-rule="evenodd" clip-rule="evenodd" d="M29.4235 4.0101C29.7835 4.0671 30.0785 3.8931 30.136 3.5271C30.1945 3.1616 29.966 2.9111 29.607 2.8536L28.7585 2.7196L28.575 3.8751L29.4235 4.0101ZM29.7405 2.0121C30.1845 2.0826 30.53 2.2706 30.7685 2.5831C31.0075 2.8886 31.0975 3.2511 31.0315 3.6691C30.9635 4.0936 30.766 4.4106 30.443 4.6331C30.121 4.8501 29.734 4.9226 29.29 4.8526L27.54 4.5751L28.265 0.00360107L31.1385 0.459101L31.0015 1.3211L29.0295 1.0086L28.892 1.8766L29.7405 2.0121Z" fill="white"/>
<path fill-rule="evenodd" clip-rule="evenodd" d="M33.4374 4.19616L34.6204 4.65516L34.7129 2.66366L33.4374 4.19616ZM34.5344 6.42966L34.5769 5.55316L32.8579 4.88616L32.2979 5.56216L31.3799 5.20616L34.5629 1.47766L35.6169 1.88666L35.4589 6.78866L34.5344 6.42966Z" fill="white"/>
<path fill-rule="evenodd" clip-rule="evenodd" d="M39.2748 9.31578L38.4048 8.72728L38.2503 6.00528L37.0353 7.80128L36.2803 7.29028L38.8723 3.45728L39.6283 3.96878L38.4833 5.66028L40.9423 4.85728L41.8128 5.44678L39.1358 6.34878L39.2748 9.31578Z" fill="white"/>
<path fill-rule="evenodd" clip-rule="evenodd" d="M41.8285 11.9208L43.89 9.99377L40.474 10.4723L40 9.96477L43.3805 6.80627L44.0035 7.47277L41.9365 9.40377L45.357 8.92127L45.831 9.42827L42.4505 12.5868L41.8285 11.9208Z" fill="white"/>
<path fill-rule="evenodd" clip-rule="evenodd" d="M48.5774 13.6609L49.0284 14.4459L45.0164 16.7509L44.5659 15.9654L46.2279 15.0109L45.3724 13.5209L43.7099 14.4754L43.2549 13.6844L47.2679 11.3799L47.7219 12.1709L46.1284 13.0864L46.9844 14.5764L48.5774 13.6609Z" fill="white"/>
<path fill-rule="evenodd" clip-rule="evenodd" d="M47.4999 18.6156L47.8644 19.8311L49.4924 18.6811L47.4999 18.6156ZM46.4114 20.8531L47.1299 20.3481L46.5999 18.5821L45.7229 18.5551L45.4404 17.6116L50.3359 17.8346L50.6604 18.9176L46.6964 21.8021L46.4114 20.8531Z" fill="white"/>
<path fill-rule="evenodd" clip-rule="evenodd" d="M47.6548 28.6187C47.6028 29.0182 47.6923 29.3567 47.9213 29.6402C48.1578 29.9242 48.4823 30.0937 48.9088 30.1492C49.3348 30.2047 49.6913 30.1247 49.9863 29.9102C50.2878 29.6962 50.4608 29.3917 50.5133 28.9922L50.6328 28.0747L47.7748 27.7012L47.6548 28.6187ZM51.3783 29.1052C51.2963 29.7342 51.0048 30.2297 50.5108 30.5917C50.0163 30.9607 49.4443 31.0992 48.7953 31.0147C48.1463 30.9297 47.6303 30.6492 47.2468 30.1652C46.8623 29.6887 46.7073 29.1347 46.7903 28.5052L47.0278 26.6832L51.6168 27.2832L51.3783 29.1052Z" fill="white"/>
<path fill-rule="evenodd" clip-rule="evenodd" d="M45.3127 34.0775L47.9572 35.0665L46.0072 32.22L46.2502 31.5695L50.5857 33.1905L50.2657 34.0455L47.6152 33.0545L49.5712 35.903L49.3277 36.5535L44.9932 34.9325L45.3127 34.0775Z" fill="white"/>
<path fill-rule="evenodd" clip-rule="evenodd" d="M43.9248 39.2154C43.5718 38.9944 43.3758 38.6844 43.3218 38.2839C43.2688 37.8834 43.3758 37.4754 43.6393 37.0549C44.0953 36.3264 44.7083 36.0319 45.4793 36.1714L45.4378 37.0734C44.9828 36.9524 44.6238 37.1019 44.3683 37.5109C44.1013 37.9369 44.1478 38.2864 44.4558 38.4789C44.7648 38.6719 45.0988 38.5614 45.3543 38.1524L45.6603 37.6649L46.3493 38.0964L46.1178 38.4664C45.8753 38.8529 45.9113 39.1949 46.2028 39.3774C46.4943 39.5599 46.7923 39.4819 47.0203 39.1174C47.2313 38.7814 47.2158 38.4444 46.9698 38.1024L47.7613 37.6854C48.1513 38.2964 48.1463 38.9254 47.7438 39.5699C47.5013 39.9569 47.1948 40.2094 46.8328 40.3259C46.4713 40.4429 46.1143 40.3909 45.7718 40.1769C45.4188 39.9554 45.2323 39.6434 45.2063 39.2374C44.7748 39.4899 44.3453 39.4784 43.9248 39.2154Z" fill="white"/>
<path fill-rule="evenodd" clip-rule="evenodd" d="M42.7335 41.2027L41.857 42.1207L43.663 42.9677L42.7335 41.2027ZM40.249 41.3627L41.044 41.7372L42.318 40.4032L41.907 39.6267L42.5875 38.9137L44.816 43.2827L44.0355 44.1002L39.5645 42.0802L40.249 41.3627Z" fill="white"/>
<path fill-rule="evenodd" clip-rule="evenodd" d="M36.7687 43.9938L38.3392 46.3398L38.4177 42.8913L38.9937 42.5048L41.5677 46.3508L40.8092 46.8583L39.2362 44.5068L39.1612 47.9608L38.5847 48.3473L36.0107 44.5013L36.7687 43.9938Z" fill="white"/>
<path fill-rule="evenodd" clip-rule="evenodd" d="M34.2381 50.2713L33.3931 50.5973L31.7266 46.2803L32.5711 45.9538L33.2616 47.7423L34.8651 47.1233L34.1746 45.3348L35.0256 45.0063L36.6921 49.3233L35.8416 49.6523L35.1796 47.9373L33.5761 48.5563L34.2381 50.2713Z" fill="white"/>
<path fill-rule="evenodd" clip-rule="evenodd" d="M25.5615 47.9403C25.1585 47.9368 24.833 48.0653 24.5795 48.3273C24.326 48.5958 24.197 48.9383 24.193 49.3678C24.1885 49.7973 24.3115 50.1423 24.5595 50.4088C24.8075 50.6823 25.131 50.8178 25.5335 50.8218L26.459 50.8308L26.487 47.9493L25.5615 47.9403ZM25.5255 51.6943C24.8905 51.6878 24.364 51.4583 23.946 51.0113C23.5205 50.5643 23.314 50.0133 23.3205 49.3593C23.3265 48.7048 23.5435 48.1588 23.9775 47.7198C24.405 47.2818 24.9355 47.0618 25.5705 47.0683L27.407 47.0863L27.3625 51.7118L25.5255 51.6943Z" fill="white"/>
<path fill-rule="evenodd" clip-rule="evenodd" d="M22.8649 47.839C22.3479 47.6385 22.0269 47.8225 21.8314 48.673L21.2164 51.34L18.1494 50.633L19.1894 46.1235L20.0714 46.327L19.2284 49.986L20.5299 50.2865L20.9424 48.495C21.1224 47.7155 21.4469 47.2205 21.8414 47.04C22.2294 46.858 22.6074 46.8635 23.0549 47.0145L22.8649 47.839Z" fill="white"/>
<path fill-rule="evenodd" clip-rule="evenodd" d="M14.9684 46.9056L14.3829 48.1436L15.2319 48.5451C15.5429 48.6921 15.9304 48.5391 16.0914 48.1981C16.2524 47.8571 16.1289 47.4546 15.8179 47.3071L14.9684 46.9056ZM13.1924 48.5246L15.1729 44.3381L15.9984 44.7286L15.3109 46.1821L15.7834 46.4056L17.4334 45.4076L18.3604 45.8466L16.6079 46.9056C17.0494 47.3486 17.1799 48.0321 16.9164 48.5886C16.7354 48.9711 16.4424 49.2351 16.0454 49.3771C15.6499 49.5186 15.2554 49.5006 14.8669 49.3166L13.1924 48.5246Z" fill="white"/>
<path fill-rule="evenodd" clip-rule="evenodd" d="M9.68814 41.0604C9.41114 40.7669 9.09264 40.6224 8.72714 40.6209C8.35764 40.6249 8.02164 40.7694 7.70914 41.0649C7.39664 41.3599 7.23314 41.6874 7.21314 42.0514C7.18864 42.4204 7.31514 42.7469 7.59164 43.0399L8.22814 43.7129L10.3236 41.7329L9.68814 41.0604ZM6.95714 43.6394C6.52164 43.1779 6.32214 42.6389 6.35264 42.0274C6.38014 41.4104 6.63414 40.8799 7.10964 40.4299C7.58564 39.9804 8.13064 39.7574 8.74714 39.7659C9.35964 39.7689 9.88664 39.9994 10.3226 40.4609L11.5851 41.7974L8.21964 44.9759L6.95714 43.6394Z" fill="white"/>
<path fill-rule="evenodd" clip-rule="evenodd" d="M7.08193 37.7425L6.05893 36.081L6.80343 35.6235L8.30343 38.0625L4.36043 40.4875L2.87793 38.077L3.62093 37.6195L4.62593 39.253L5.46493 38.7365L4.54743 37.244L5.27943 36.7935L6.19693 38.286L7.08193 37.7425Z" fill="white"/>
<path fill-rule="evenodd" clip-rule="evenodd" d="M5.71033 35.4395C5.59733 34.8965 5.26833 34.728 4.44833 35.0265L1.87533 35.9625L0.798828 33.0045L5.14933 31.421L5.45833 32.2725L1.92883 33.557L2.38583 34.8125L4.11333 34.184C4.86583 33.91 5.45783 33.9125 5.82433 34.1455C6.18783 34.372 6.38883 34.6925 6.50633 35.15L5.71033 35.4395Z" fill="white"/>
<mask id="mask1_202_20969" style="mask-type:alpha" maskUnits="userSpaceOnUse" x="0" y="26" width="5" height="5">
<path fill-rule="evenodd" clip-rule="evenodd" d="M0 26.4136H4.9408V30.7516H0V26.4136Z" fill="white"/>
</mask>
<g mask="url(#mask1_202_20969)">
<path fill-rule="evenodd" clip-rule="evenodd" d="M3.07 29.4286L2.907 28.1701L1.1145 29.0426L3.07 29.4286ZM4.506 27.3966L3.716 27.7786L3.9535 29.6071L4.814 29.7756L4.941 30.7516L0.145 29.7411L0 28.6206L4.378 26.4136L4.506 27.3966Z" fill="white"/>
</g>
<path fill-rule="evenodd" clip-rule="evenodd" d="M2.74179 24.1006C2.74179 24.5791 2.35379 24.9671 1.87529 24.9671C1.39679 24.9671 1.00879 24.5791 1.00879 24.1006C1.00879 23.6221 1.39679 23.2341 1.87529 23.2341C2.35379 23.2341 2.74179 23.6221 2.74179 24.1006Z" fill="white"/>
<path fill-rule="evenodd" clip-rule="evenodd" d="M50.1939 24.1153C50.1939 24.5938 49.8064 24.9818 49.3279 24.9818C48.8494 24.9818 48.4609 24.5938 48.4609 24.1153C48.4609 23.6368 48.8494 23.2488 49.3279 23.2488C49.8064 23.2488 50.1939 23.6368 50.1939 24.1153Z" fill="white"/>
<path fill-rule="evenodd" clip-rule="evenodd" d="M38.8882 31.7569C38.0227 32.6204 36.8292 33.1124 35.5252 33.1169L35.5207 33.1159H23.6642L22.6362 33.1169H18.8492C16.1397 33.1169 11.0957 30.9794 11.0957 25.3899C11.0957 20.1059 15.5327 17.6149 18.7012 17.6149H21.7982C22.8887 17.6149 23.6182 18.4164 23.6182 19.4029C23.6182 20.3969 22.7962 21.1059 21.7982 21.1059C20.7997 21.1059 19.9752 21.1034 18.8462 21.1034C17.7177 21.1034 14.8602 22.1319 14.8602 25.3899C14.8602 28.6474 17.7002 29.6094 18.8492 29.6094L22.6327 29.6059L23.6682 29.6094C23.6682 29.6094 34.7472 29.6059 35.3647 29.6059C36.2032 29.6059 36.7312 28.9349 36.7312 28.2254C36.7312 27.5744 36.2587 26.8034 35.3607 26.8034H32.1302L27.5147 26.8014C26.6237 26.8069 25.7277 25.9099 25.7247 25.0114L25.7227 19.4094C25.7207 18.5124 26.6147 17.6149 27.5097 17.6149H33.8382C34.8307 17.6109 35.6292 18.3274 35.6277 19.3154C35.6292 20.3074 34.8257 21.1119 33.8402 21.1139L29.4332 21.1094V23.6199L32.1302 23.6224L35.5187 23.6199H35.5207C36.8282 23.6199 38.0237 24.1599 38.8902 25.0314C39.7527 25.8979 40.2897 27.0634 40.2897 28.3739C40.2952 29.6859 39.7527 30.8864 38.8882 31.7569Z" fill="white"/>
</svg>
