<svg width="14" height="14" viewBox="0 0 14 14" fill="none" xmlns="http://www.w3.org/2000/svg">
<path fill-rule="evenodd" clip-rule="evenodd" d="M7.69141 0.25H6.19141V7.75H7.69141V0.25ZM11.3139 1.8775L10.2489 2.9425C11.4339 3.895 12.1914 5.3575 12.1914 7C12.1914 9.9025 9.84391 12.25 6.94141 12.25C4.03891 12.25 1.69141 9.9025 1.69141 7C1.69141 5.3575 2.44891 3.895 3.62641 2.935L2.56891 1.8775C1.11391 3.115 0.191406 4.945 0.191406 7C0.191406 10.7275 3.21391 13.75 6.94141 13.75C10.6689 13.75 13.6914 10.7275 13.6914 7C13.6914 4.945 12.7689 3.115 11.3139 1.8775Z" fill="#969696"/>
</svg>
