<svg width="19" height="19" viewBox="0 0 19 19" fill="none" xmlns="http://www.w3.org/2000/svg">
<path fill-rule="evenodd" clip-rule="evenodd" d="M15.2109 2.3877H12.0759C11.7609 1.5177 10.9359 0.887695 9.96094 0.887695C8.98594 0.887695 8.16094 1.5177 7.84594 2.3877H4.71094C3.88594 2.3877 3.21094 3.0627 3.21094 3.8877V14.3877C3.21094 15.2127 3.88594 15.8877 4.71094 15.8877H15.2109C16.0359 15.8877 16.7109 15.2127 16.7109 14.3877V3.8877C16.7109 3.0627 16.0359 2.3877 15.2109 2.3877ZM9.96094 2.3877C10.3734 2.3877 10.7109 2.7252 10.7109 3.1377C10.7109 3.5502 10.3734 3.8877 9.96094 3.8877C9.54844 3.8877 9.21094 3.5502 9.21094 3.1377C9.21094 2.7252 9.54844 2.3877 9.96094 2.3877ZM8.46094 12.8877L5.46094 9.8877L6.51844 8.8302L8.46094 10.7652L13.4034 5.8227L14.4609 6.8877L8.46094 12.8877Z" fill="white"/>
</svg>
