<svg width="19" height="25" viewBox="0 0 19 25" fill="none" xmlns="http://www.w3.org/2000/svg">
<path d="M16.3948 1.74349C14.6578 0.581155 12.2083 0 9.02691 0H0.136638V1.06382C0.761745 1.10689 1.38025 1.21923 1.98104 1.39875C2.14416 1.44176 2.29678 1.51815 2.4294 1.62321C2.56203 1.72828 2.67184 1.85976 2.752 2.00946C2.88589 2.38826 2.94554 2.7897 2.92765 3.19148V13.1797H0V14.2337H2.92765V18.0654H0V19.1194H2.92765V21.8085C2.94554 22.2103 2.88589 22.6117 2.752 22.9905C2.67328 23.1413 2.56392 23.2737 2.43107 23.3789C2.29822 23.4842 2.14488 23.5599 1.98104 23.6012C1.37863 23.7757 0.760985 23.8911 0.136638 23.946V25H9.30993V23.946C8.63241 23.8886 7.96223 23.7632 7.30935 23.5717C7.12805 23.5228 6.95889 23.4362 6.81268 23.3175C6.66648 23.1988 6.54645 23.0505 6.46034 22.8822C6.31455 22.4617 6.24836 22.0173 6.26518 21.5721V19.1194H14.6285V18.0654H6.26518V14.2533H9.02691C10.7815 14.2828 12.528 14.0062 14.1893 13.4358C15.5732 12.9672 16.7978 12.1136 17.722 10.9732C18.5945 9.80787 19.0425 8.37463 18.9907 6.91488C19.0483 5.89839 18.8385 4.88462 18.3826 3.97639C17.9267 3.06817 17.2409 2.29781 16.3948 1.74349ZM14.6285 10.2738C14.0332 11.1741 13.1731 11.8631 12.1693 12.2439C10.8309 12.7521 9.41265 13.0124 7.98271 13.0122L6.26518 13.0615V1.24114L7.98271 1.29038C9.4126 1.29531 10.829 1.56924 12.1595 2.09811C13.1643 2.48169 14.0268 3.16989 14.6285 4.06817C15.1915 4.98692 15.4764 6.05165 15.4482 7.13159C15.4872 8.23759 15.202 9.33063 14.6285 10.2738Z" fill="#1C1C1C"/>
</svg>
