<svg width="19" height="18" viewBox="0 0 19 18" fill="none" xmlns="http://www.w3.org/2000/svg">
<path fill-rule="evenodd" clip-rule="evenodd" d="M12.0146 10.5H11.4221L11.2121 10.2975C11.9471 9.4425 12.3896 8.3325 12.3896 7.125C12.3896 4.4325 10.2071 2.25 7.51465 2.25C4.82215 2.25 2.63965 4.4325 2.63965 7.125C2.63965 9.8175 4.82215 12 7.51465 12C8.72215 12 9.83215 11.5575 10.6871 10.8225L10.8896 11.0325V11.625L14.6396 15.3675L15.7571 14.25L12.0146 10.5ZM7.51465 10.5C5.64715 10.5 4.13965 8.9925 4.13965 7.125C4.13965 5.2575 5.64715 3.75 7.51465 3.75C9.38215 3.75 10.8896 5.2575 10.8896 7.125C10.8896 8.9925 9.38215 10.5 7.51465 10.5Z" fill="#1C1C1C"/>
</svg>
