<svg width="16" height="16" viewBox="0 0 16 16" fill="none" xmlns="http://www.w3.org/2000/svg">
<path fill-rule="evenodd" clip-rule="evenodd" d="M13.3109 8.27504C13.3409 8.03504 13.3634 7.79504 13.3634 7.54004C13.3634 7.28504 13.3409 7.04504 13.3109 6.80504L14.8934 5.56754C15.0359 5.45504 15.0734 5.25254 14.9834 5.08754L13.4834 2.49254C13.3934 2.32754 13.1909 2.26754 13.0259 2.32754L11.1584 3.07754C10.7684 2.77754 10.3484 2.53004 9.89091 2.34254L9.6059 0.355039C9.58341 0.175039 9.42591 0.0400391 9.23841 0.0400391H6.2384C6.0509 0.0400391 5.8934 0.175039 5.8709 0.355039L5.58591 2.34254C5.12841 2.53004 4.70841 2.78504 4.3184 3.07754L2.4509 2.32754C2.2784 2.26004 2.08341 2.32754 1.9934 2.49254L0.493405 5.08754C0.395905 5.25254 0.440905 5.45504 0.583405 5.56754L2.1659 6.80504C2.13591 7.04504 2.1134 7.29254 2.1134 7.54004C2.1134 7.78754 2.13591 8.03504 2.1659 8.27504L0.583405 9.51254C0.440905 9.62504 0.403405 9.82754 0.493405 9.99254L1.9934 12.5875C2.08341 12.7525 2.2859 12.8125 2.4509 12.7525L4.3184 12.0025C4.70841 12.3025 5.12841 12.55 5.58591 12.7375L5.8709 14.725C5.8934 14.905 6.0509 15.04 6.2384 15.04H9.23841C9.42591 15.04 9.58341 14.905 9.6059 14.725L9.89091 12.7375C10.3484 12.55 10.7684 12.295 11.1584 12.0025L13.0259 12.7525C13.1984 12.82 13.3934 12.7525 13.4834 12.5875L14.9834 9.99254C15.0734 9.82754 15.0359 9.62504 14.8934 9.51254L13.3109 8.27504ZM7.73841 10.165C6.29091 10.165 5.11341 8.98754 5.11341 7.54004C5.11341 6.09254 6.29091 4.91504 7.73841 4.91504C9.18591 4.91504 10.3634 6.09254 10.3634 7.54004C10.3634 8.98754 9.18591 10.165 7.73841 10.165Z" fill="#969696"/>
</svg>
