<svg width="41" height="40" viewBox="0 0 41 40" fill="none" xmlns="http://www.w3.org/2000/svg">
<path fill-rule="evenodd" clip-rule="evenodd" d="M37.1667 9.87369C35.9403 10.4181 34.6223 10.7848 33.2389 10.9501C34.6514 10.1042 35.7362 8.76397 36.2459 7.16675C34.925 7.95008 33.4612 8.51953 31.9028 8.82647C30.657 7.4973 28.8778 6.66675 26.9112 6.66675C22.4959 6.66675 19.2514 10.7862 20.2487 15.0626C14.5667 14.7779 9.52782 12.0556 6.15421 7.91814C4.36254 10.9917 5.22504 15.0126 8.26949 17.0487C7.15004 17.0126 6.09449 16.7056 5.17365 16.1931C5.09865 19.3612 7.36948 22.3251 10.6584 22.9848C9.69587 23.2459 8.64171 23.307 7.56949 23.1015C8.43893 25.8181 10.9639 27.7945 13.9584 27.8501C11.0834 30.1042 7.46115 31.1112 3.83337 30.6834C6.85976 32.6237 10.4556 33.7556 14.3167 33.7556C27.0139 33.7556 34.1875 23.032 33.7542 13.414C35.0903 12.4487 36.25 11.2445 37.1667 9.87369Z" fill="#22201E"/>
</svg>
