<svg width="20" height="20" viewBox="0 0 20 20" fill="none" xmlns="http://www.w3.org/2000/svg">
<path fill-rule="evenodd" clip-rule="evenodd" d="M18.3337 4.93672C17.7205 5.20895 17.0614 5.39228 16.3698 5.47492C17.076 5.052 17.6184 4.38186 17.8732 3.58325C17.2128 3.97492 16.4809 4.25964 15.7017 4.41311C15.0788 3.74853 14.1892 3.33325 13.2059 3.33325C10.9982 3.33325 9.37602 5.39297 9.87463 7.53117C7.03366 7.38881 4.51421 6.0277 2.82741 3.95895C1.93158 5.49575 2.36283 7.50617 3.88505 8.52422C3.32533 8.50617 2.79755 8.3527 2.33713 8.09645C2.29963 9.68047 3.43505 11.1624 5.07949 11.4923C4.59824 11.6228 4.07116 11.6534 3.53505 11.5506C3.96977 12.9089 5.23227 13.8971 6.72949 13.9249C5.29199 15.052 3.48088 15.5555 1.66699 15.3416C3.18019 16.3117 4.9781 16.8777 6.90866 16.8777C13.2573 16.8777 16.8441 11.5159 16.6274 6.70686C17.2955 6.22422 17.8753 5.62214 18.3337 4.93672Z" fill="white"/>
</svg>
