<svg width="16" height="13" viewBox="0 0 16 13" fill="none" xmlns="http://www.w3.org/2000/svg">
<path fill-rule="evenodd" clip-rule="evenodd" d="M15.3516 1.44313C14.7997 1.68812 14.2066 1.85312 13.5841 1.9275C14.2197 1.54687 14.7078 0.94375 14.9372 0.225C14.3428 0.5775 13.6841 0.83375 12.9828 0.971875C12.4222 0.37375 11.6216 0 10.7366 0C8.74969 0 7.28969 1.85375 7.73844 3.77812C5.18156 3.65 2.91406 2.425 1.39594 0.563125C0.589687 1.94625 0.977812 3.75562 2.34781 4.67187C1.84406 4.65562 1.36906 4.5175 0.954688 4.28687C0.920938 5.7125 1.94281 7.04625 3.42281 7.34313C2.98969 7.46063 2.51531 7.48812 2.03281 7.39562C2.42406 8.61812 3.56031 9.5075 4.90781 9.5325C3.61406 10.5469 1.98406 11 0.351562 10.8075C1.71344 11.6806 3.33156 12.19 5.06906 12.19C10.7828 12.19 14.0109 7.36437 13.8159 3.03625C14.4172 2.60187 14.9391 2.06 15.3516 1.44313Z" fill="#969696"/>
</svg>
