<svg width="16" height="16" viewBox="0 0 16 16" fill="none" xmlns="http://www.w3.org/2000/svg">
<path fill-rule="evenodd" clip-rule="evenodd" d="M7.54297 0.5C3.40297 0.5 0.0429688 3.86 0.0429688 8C0.0429688 12.14 3.40297 15.5 7.54297 15.5C11.683 15.5 15.043 12.14 15.043 8C15.043 3.86 11.683 0.5 7.54297 0.5V0.5ZM7.54297 2.75C8.78797 2.75 9.79297 3.755 9.79297 5C9.79297 6.245 8.78797 7.25 7.54297 7.25C6.29797 7.25 5.29297 6.245 5.29297 5C5.29297 3.755 6.29797 2.75 7.54297 2.75V2.75ZM7.54297 13.4C5.66797 13.4 4.01047 12.44 3.04297 10.985C3.06547 9.4925 6.04297 8.675 7.54297 8.675C9.03547 8.675 12.0205 9.4925 12.043 10.985C11.0755 12.44 9.41797 13.4 7.54297 13.4V13.4Z" fill="#969696"/>
</svg>
