<svg width="12" height="7" viewBox="0 0 12 7" fill="none" xmlns="http://www.w3.org/2000/svg">
<path d="M1.70711 6.70711C1.31658 7.09763 0.683417 7.09763 0.292893 6.70711C-0.0976311 6.31658 -0.0976311 5.68342 0.292893 5.29289L1.70711 6.70711ZM6 1L5.29289 0.292893C5.68342 -0.097631 6.31658 -0.097631 6.70711 0.292893L6 1ZM11.7071 5.29289C12.0976 5.68342 12.0976 6.31658 11.7071 6.70711C11.3166 7.09763 10.6834 7.09763 10.2929 6.70711L11.7071 5.29289ZM0.292893 5.29289L5.29289 0.292893L6.70711 1.70711L1.70711 6.70711L0.292893 5.29289ZM6.70711 0.292893L11.7071 5.29289L10.2929 6.70711L5.29289 1.70711L6.70711 0.292893Z" fill="#1C1C1C"/>
</svg>
