<svg width="30" height="30" viewBox="0 0 30 30" fill="none" xmlns="http://www.w3.org/2000/svg">
<circle cx="15" cy="15" r="15" fill="#1C1C1C"/>
<path fill-rule="evenodd" clip-rule="evenodd" d="M3.75 21V20.5547H4.11489C4.38004 20.5547 4.59872 20.4662 4.77095 20.2869C4.94317 20.11 5.03919 19.8961 5.06273 19.6447V10.3638C5.03919 10.1123 4.94317 9.89847 4.77095 9.71611C4.59872 9.53617 4.38004 9.44469 4.11489 9.44469H3.75V9H7.77617V9.44469H7.40818C7.14303 9.44469 6.92125 9.53617 6.74283 9.71611C6.56813 9.89847 6.46901 10.1123 6.44547 10.3638V14.8719L10.6085 10.0039C10.6761 9.92695 10.7139 9.85 10.7194 9.77003C10.7194 9.68158 10.6847 9.60463 10.6116 9.54223C10.5416 9.4762 10.4425 9.44469 10.3168 9.44469H10.002V9.01696H13.8994V9.44469H13.6924C13.3455 9.44469 13.0184 9.51315 12.7149 9.65007C12.4088 9.7876 12.1579 9.96996 11.9597 10.1984L7.79661 14.6435L12.6244 19.9355C12.835 20.1524 13.068 20.3093 13.3158 20.4008C13.5673 20.4923 13.8795 20.5438 14.25 20.5547V21H13.3951C13.2637 21 13.0915 20.9915 12.8784 20.9739C12.6628 20.957 12.4324 20.917 12.1815 20.8546C11.9306 20.7892 11.6735 20.6916 11.4108 20.5608C11.1488 20.4293 10.9121 20.2439 10.7021 20.004L6.44547 15.2311V19.6447C6.46901 19.8961 6.56813 20.11 6.74283 20.2869C6.92125 20.4662 7.14303 20.5547 7.40818 20.5547H7.77617V21H3.75Z" fill="white"/>
<path fill-rule="evenodd" clip-rule="evenodd" d="M15.75 21V20.5541H16.0879C16.3347 20.5541 16.5364 20.4655 16.6971 20.2853C16.8584 20.1081 16.9467 19.8909 16.9684 19.6398V10.251C16.9684 10.0199 16.8772 9.82815 16.6971 9.67708C16.5176 9.52237 16.3136 9.44532 16.0879 9.44532H15.75V9H21.222C22.0808 9 22.8644 9.14258 23.5727 9.43137C24.2788 9.71712 24.888 10.1224 25.4009 10.6454C25.9104 11.1684 26.3053 11.7969 26.584 12.531C26.8604 13.2682 27 14.0854 27 14.9882C27 15.894 26.8604 16.7142 26.584 17.4538C26.3053 18.191 25.9104 18.8225 25.4009 19.351C24.888 19.88 24.2788 20.2883 23.5727 20.5711C22.8644 20.8568 22.0808 21 21.222 21H15.75Z" stroke="white"/>
</svg>
