<svg width="18" height="18" viewBox="0 0 18 18" fill="none" xmlns="http://www.w3.org/2000/svg">
<path d="M0 8.64C0 4.56705 0 2.5306 1.2653 1.2653C2.5306 0 4.56705 0 8.64 0H9.36C13.4329 0 15.4694 0 16.7347 1.2653C18 2.5306 18 4.56705 18 8.64V9.36C18 13.4329 18 15.4694 16.7347 16.7347C15.4694 18 13.4329 18 9.36 18H8.64C4.56705 18 2.5306 18 1.2653 16.7347C0 15.4694 0 13.4329 0 9.36V8.64Z" fill="#969696"/>
<path d="M9.57707 12.9676C5.47457 12.9676 3.13461 10.1551 3.03711 5.4751H5.09211C5.15961 8.9101 6.67457 10.3651 7.87457 10.6651V5.4751H9.80965V8.4376C10.9946 8.3101 12.2395 6.9601 12.6595 5.4751H14.5945C14.272 7.3051 12.922 8.6551 11.962 9.2101C12.922 9.6601 14.4596 10.8376 15.0446 12.9676H12.9145C12.457 11.5426 11.3171 10.4401 9.80965 10.2901V12.9676H9.57707Z" fill="white"/>
</svg>
